<?xml version="1.0" encoding="utf-8"?><svg viewBox="0 0 49 49" xmlns="http://www.w3.org/2000/svg" xmlns:xlink="http://www.w3.org/1999/xlink"><style>:root>svg{display:none}:root>svg:target{display:block}</style><svg viewBox="0 0 49 49" id="arrow-left" xmlns="http://www.w3.org/2000/svg"><path fill="#fff" d="M49.098 24.451C49.098 38.009 38.107 49 24.548 49 10.992 49 0 38.009 0 24.45S10.99-.098 24.549-.098c13.558 0 24.549 10.991 24.549 24.549zM24.486 3.175c-11.646 0-21.087 9.441-21.087 21.087 0 11.646 9.441 21.087 21.087 21.087 11.646 0 21.087-9.44 21.087-21.087 0-11.646-9.441-21.087-21.087-21.087z" opacity=".22"/><path fill="#fff" d="M29.839 33.518V15.006l-13.97 9.256z" opacity=".22"/></svg><svg viewBox="0 0 49 49" id="arrow-right" xmlns="http://www.w3.org/2000/svg"><path fill="#fff" d="M24.545-.098c13.558 0 24.549 10.991 24.549 24.549S38.103 49 24.544 49C10.988 49-.003 38.009-.003 24.45S10.987-.098 24.545-.098zM3.52 24.262c0 11.646 9.44 21.087 21.087 21.087 11.646 0 21.087-9.44 21.087-21.087 0-11.646-9.441-21.087-21.087-21.087-11.646 0-21.087 9.441-21.087 21.087z" opacity=".22"/><path fill="#fff" d="M19.255 33.518V15.006l13.97 9.256z" opacity=".22"/></svg></svg>